<?xml version="1.0" encoding="utf-8"?>
<!-- Generator: Adobe Illustrator 24.0.0, SVG Export Plug-In . SVG Version: 6.00 Build 0)  -->
<svg version="1.1" id="Layer_1" xmlns="http://www.w3.org/2000/svg" xmlns:xlink="http://www.w3.org/1999/xlink" x="0px" y="0px"
	 viewBox="0 0 175 81" style="enable-background:new 0 0 175 81;" xml:space="preserve">
<style type="text/css">
	.st0{fill:#FE7915;}
	.st1{fill:#353535;}
	.st2{opacity:0.91;fill:none;stroke:#F7931E;stroke-miterlimit:10;enable-background:new    ;}
	.st3{display:none;fill:none;stroke:#000000;stroke-miterlimit:10;}
</style>
<g>
	<g>
		<path class="st0" d="M38.08,28.87c-0.22-0.64-0.17-1.28-0.04-1.8c0.62-0.42,1.03-1.12,1.03-1.93c0-1.28-1.04-2.32-2.32-2.32
			s-2.32,1.04-2.32,2.32c0,0.88,0.49,1.64,1.21,2.04c0.15,0.46,0.24,0.99,0.11,1.5c-0.78,0.37-1.32,1.17-1.32,2.09
			c0,1.28,1.04,2.32,2.32,2.32s2.32-1.04,2.32-2.32C39.07,29.98,38.67,29.29,38.08,28.87z"/>
		<path class="st0" d="M38.28,20.47c0,0.85-0.69,1.54-1.54,1.54s-1.54-0.69-1.54-1.54c0-0.85,0.69-1.54,1.54-1.54
			C37.6,18.94,38.28,19.62,38.28,20.47z"/>
		<path class="st0" d="M37.67,16.82c0,0.51-0.42,0.93-0.93,0.93s-0.93-0.42-0.93-0.93s0.42-0.93,0.93-0.93
			C37.26,15.89,37.67,16.31,37.67,16.82z"/>
		<path class="st0" d="M43.3,32.28c0.29-0.61,0.79-1.02,1.25-1.3c0.73,0.14,1.52-0.07,2.09-0.64c0.91-0.91,0.91-2.38,0-3.28
			c-0.91-0.91-2.38-0.91-3.28,0c-0.62,0.62-0.82,1.51-0.59,2.29c-0.21,0.43-0.53,0.87-0.98,1.14c-0.82-0.29-1.76-0.11-2.41,0.54
			c-0.91,0.91-0.91,2.38,0,3.28c0.91,0.91,2.38,0.91,3.28,0C43.21,33.76,43.43,33,43.3,32.28z"/>
		<path class="st0" d="M49.38,26.49c-0.6,0.6-1.58,0.6-2.18,0s-0.6-1.57,0-2.18c0.6-0.6,1.58-0.6,2.18,0S49.98,25.89,49.38,26.49z"
			/>
		<path class="st0" d="M51.54,23.47c-0.36,0.36-0.95,0.36-1.31,0s-0.36-0.95,0-1.31s0.95-0.36,1.31,0S51.9,23.11,51.54,23.47z"/>
		<path class="st0" d="M44.59,38.38c0.64-0.22,1.28-0.17,1.8-0.04c0.42,0.62,1.12,1.02,1.92,1.02c1.28,0,2.32-1.04,2.32-2.32
			c0-1.28-1.04-2.32-2.32-2.32c-0.88,0-1.64,0.49-2.04,1.21c-0.46,0.15-0.99,0.24-1.5,0.11c-0.37-0.78-1.17-1.32-2.09-1.32
			c-1.28,0-2.32,1.04-2.32,2.32c0,1.28,1.04,2.32,2.32,2.32C43.47,39.37,44.16,38.98,44.59,38.38z"/>
		<path class="st0" d="M52.98,38.59c-0.85,0-1.54-0.69-1.54-1.54c0-0.85,0.69-1.54,1.54-1.54s1.54,0.69,1.54,1.54
			S53.83,38.59,52.98,38.59z"/>
		<path class="st0" d="M56.64,37.98c-0.51,0-0.93-0.42-0.93-0.93s0.42-0.93,0.93-0.93s0.93,0.42,0.93,0.93S57.15,37.98,56.64,37.98z
			"/>
		<path class="st0" d="M41.18,43.6c0.61,0.29,1.02,0.79,1.3,1.25c-0.14,0.73,0.07,1.52,0.64,2.09c0.91,0.91,2.38,0.91,3.28,0
			s0.9-2.38,0-3.28c-0.62-0.62-1.51-0.82-2.29-0.59c-0.43-0.21-0.87-0.53-1.14-0.98c0.29-0.82,0.11-1.76-0.54-2.41
			c-0.91-0.91-2.38-0.91-3.28,0c-0.91,0.91-0.91,2.38,0,3.28C39.69,43.52,40.46,43.73,41.18,43.6z"/>
		<path class="st0" d="M46.97,49.69c-0.6-0.6-0.6-1.58,0-2.18c0.6-0.6,1.58-0.6,2.18,0s0.6,1.58,0,2.18
			C48.54,50.29,47.57,50.29,46.97,49.69z"/>
		<path class="st0" d="M49.98,51.84c-0.36-0.36-0.36-0.95,0-1.31s0.95-0.36,1.32,0c0.36,0.36,0.36,0.95,0,1.31
			C50.94,52.21,50.35,52.21,49.98,51.84z"/>
		<path class="st0" d="M35.08,44.89c0.22,0.64,0.17,1.28,0.04,1.8c-0.62,0.42-1.03,1.12-1.03,1.92c0,1.28,1.04,2.32,2.32,2.32
			s2.32-1.04,2.32-2.32c0-0.88-0.49-1.64-1.21-2.04c-0.15-0.46-0.24-0.99-0.11-1.5c0.78-0.37,1.32-1.17,1.32-2.09
			c0-1.28-1.04-2.32-2.32-2.32s-2.32,1.04-2.32,2.32C34.09,43.78,34.48,44.47,35.08,44.89z"/>
		<path class="st0" d="M34.87,53.29c0-0.85,0.69-1.54,1.54-1.54s1.54,0.69,1.54,1.54c0,0.85-0.69,1.54-1.54,1.54
			C35.56,54.82,34.87,54.14,34.87,53.29z"/>
		<path class="st0" d="M35.48,56.94c0-0.51,0.42-0.93,0.93-0.93s0.93,0.42,0.93,0.93s-0.42,0.93-0.93,0.93
			C35.89,57.87,35.48,57.45,35.48,56.94z"/>
		<path class="st0" d="M29.85,41.48c-0.29,0.61-0.79,1.02-1.25,1.3c-0.73-0.14-1.52,0.07-2.09,0.64c-0.91,0.91-0.91,2.38,0,3.28
			c0.91,0.91,2.38,0.91,3.28,0c0.62-0.62,0.82-1.51,0.59-2.29c0.21-0.43,0.53-0.87,0.98-1.14c0.82,0.29,1.76,0.11,2.41-0.54
			c0.91-0.91,0.91-2.38,0-3.28c-0.91-0.91-2.38-0.91-3.28,0C29.94,40,29.73,40.76,29.85,41.48z"/>
		<path class="st0" d="M23.77,47.27c0.6-0.6,1.57-0.6,2.18,0c0.6,0.6,0.6,1.57,0,2.18c-0.6,0.6-1.58,0.6-2.18,0
			C23.17,48.85,23.17,47.87,23.77,47.27z"/>
		<path class="st0" d="M21.61,50.29c0.36-0.36,0.95-0.36,1.31,0s0.36,0.95,0,1.31s-0.95,0.36-1.31,0S21.25,50.65,21.61,50.29z"/>
		<path class="st0" d="M28.57,35.38c-0.63,0.22-1.28,0.17-1.8,0.04c-0.42-0.62-1.12-1.02-1.92-1.02c-1.28,0-2.32,1.04-2.32,2.32
			c0,1.28,1.04,2.32,2.32,2.32c0.88,0,1.64-0.49,2.04-1.21c0.46-0.15,0.99-0.24,1.5-0.11c0.37,0.78,1.17,1.32,2.09,1.32
			c1.28,0,2.32-1.04,2.32-2.32c0-1.28-1.04-2.32-2.32-2.32C29.68,34.39,28.99,34.78,28.57,35.38z"/>
		<path class="st0" d="M20.17,35.17c0.85,0,1.54,0.69,1.54,1.54c0,0.85-0.69,1.54-1.54,1.54s-1.54-0.69-1.54-1.54
			C18.63,35.86,19.32,35.17,20.17,35.17z"/>
		<path class="st0" d="M16.52,35.78c0.51,0,0.93,0.42,0.93,0.93s-0.42,0.93-0.93,0.93s-0.93-0.42-0.93-0.93S16,35.78,16.52,35.78z"
			/>
		<path class="st0" d="M31.97,30.16c-0.61-0.29-1.02-0.79-1.3-1.25c0.14-0.73-0.07-1.52-0.64-2.09c-0.91-0.91-2.38-0.91-3.28,0
			c-0.91,0.91-0.91,2.38,0,3.28c0.62,0.62,1.51,0.82,2.29,0.59c0.43,0.21,0.87,0.53,1.14,0.98c-0.29,0.82-0.11,1.76,0.54,2.41
			c0.91,0.91,2.38,0.91,3.28,0c0.91-0.91,0.91-2.38,0-3.28C33.46,30.24,32.69,30.03,31.97,30.16z"/>
		<path class="st0" d="M26.18,24.07c0.6,0.6,0.6,1.58,0,2.18c-0.6,0.6-1.57,0.6-2.18,0c-0.6-0.6-0.6-1.58,0-2.18
			C24.61,23.47,25.58,23.47,26.18,24.07z"/>
		<path class="st0" d="M23.17,21.92c0.36,0.36,0.36,0.95,0,1.31s-0.95,0.36-1.31,0s-0.36-0.95,0-1.31S22.8,21.56,23.17,21.92z"/>
	</g>
	<g>
		<g>
			<path class="st1" d="M79.41,31.8c0,1.37-0.39,2.58-1.17,3.63c-0.68,0.92-1.57,1.61-2.68,2.06c-1.01,0.42-2.22,0.62-3.63,0.62
				c-1.75,0-3.46-0.4-5.13-1.2l-0.15-0.27c0.23-0.96,0.35-2.31,0.35-4.08l0.12-0.12h0.8l0.11,0.12v0.29c0,0.47,0.05,1.08,0.15,1.84
				c0.3,0.53,0.84,0.99,1.61,1.37c0.81,0.4,1.64,0.6,2.52,0.6c1.65,0,2.78-0.57,3.42-1.72c0.32-0.59,0.49-1.2,0.49-1.83
				c0-1.06-0.44-1.82-1.33-2.28c-0.44-0.22-1.15-0.41-2.13-0.56c-2.22-0.34-3.68-0.77-4.37-1.28c-1.06-0.78-1.58-1.99-1.58-3.63
				c0-1.7,0.57-3.06,1.72-4.08c1.21-1.06,2.9-1.6,5.06-1.6c1.94,0,3.51,0.31,4.71,0.93l0.09,0.3c-0.2,0.99-0.32,2.18-0.36,3.56
				l-0.14,0.12H77.1l-0.12-0.12c-0.03-1-0.07-1.65-0.12-1.94c-0.26-0.39-0.71-0.72-1.35-1c-0.68-0.28-1.39-0.42-2.13-0.42
				c-1.11,0-1.99,0.29-2.64,0.89c-0.61,0.56-0.91,1.28-0.91,2.16c0,0.96,0.34,1.66,1.03,2.11c0.45,0.29,1.51,0.57,3.18,0.83
				c0.17,0.03,0.66,0.11,1.46,0.25c0.49,0.08,0.94,0.2,1.36,0.36c0.84,0.32,1.47,0.8,1.89,1.45C79.18,29.86,79.41,30.74,79.41,31.8z
				"/>
			<path class="st1" d="M95.2,37.49l-0.12,0.12c-1.25-0.04-2.03-0.06-2.36-0.06c-0.27,0-0.68,0.01-1.22,0.03
				c-0.54,0.02-0.94,0.03-1.21,0.03l-0.1-0.1c0.07-0.68,0.1-1.33,0.1-1.94c-0.43,0.32-1.19,1.01-2.27,2.07
				c-0.54,0.21-1.12,0.31-1.73,0.31c-1.12,0-2.01-0.31-2.66-0.92c-0.65-0.61-0.97-1.49-0.97-2.64c0-0.14,0.01-0.44,0.03-0.9
				c0.02-0.46,0.02-0.9,0.02-1.32v-1.6c0-1.64-0.06-2.6-0.19-2.87c-0.08-0.17-0.26-0.27-0.54-0.31c-0.1-0.02-0.47-0.04-1.1-0.06
				l-0.12-0.12v-0.7l0.12-0.14c1.59-0.14,3.19-0.49,4.82-1.03l0.27,0.16c-0.11,1.38-0.16,2.65-0.16,3.83v2.43
				c0,1.14,0.04,1.92,0.11,2.33c0.08,0.5,0.28,0.88,0.59,1.13c0.31,0.26,0.73,0.39,1.25,0.39c0.65,0,1.22-0.21,1.71-0.62
				c0.47-0.42,0.71-0.89,0.73-1.42c0.02-0.41,0.03-0.66,0.03-0.76v-2.23c0-1.63-0.06-2.58-0.19-2.87c-0.07-0.17-0.25-0.27-0.52-0.31
				c-0.1-0.02-0.47-0.04-1.1-0.06l-0.14-0.12v-0.7l0.14-0.14c1.58-0.14,3.19-0.49,4.82-1.03l0.26,0.16
				c-0.11,1.25-0.16,2.52-0.16,3.83v3.91c0,1.75,0.05,2.75,0.15,2.98c0.05,0.12,0.13,0.19,0.25,0.22c0.2,0.06,0.63,0.11,1.3,0.15
				l0.14,0.12v0.77H95.2z"/>
			<path class="st1" d="M110.37,37.51l-0.13,0.14c-0.91-0.06-1.69-0.09-2.32-0.09c-0.58,0-1.43,0.03-2.54,0.09l-0.12-0.12
				c0.15-1.85,0.23-3.28,0.23-4.29V30.8c0-2.03-0.73-3.04-2.19-3.04c-0.76,0-1.36,0.26-1.79,0.79c-0.37,0.44-0.55,0.88-0.55,1.33
				v2.33c0,2.15,0.05,3.47,0.16,3.96c0.07,0.29,0.55,0.44,1.45,0.46l0.12,0.12v0.76l-0.12,0.12c-0.71-0.05-1.76-0.07-3.16-0.07
				c-1.49,0-2.62,0.03-3.4,0.09l-0.12-0.12v-0.76l0.12-0.12c0.8-0.02,1.29-0.09,1.48-0.19c0.17-0.07,0.26-0.27,0.27-0.6
				c0.06-1.08,0.09-2.24,0.09-3.48V30.6c0-1.66-0.06-2.62-0.19-2.87c-0.08-0.17-0.26-0.27-0.54-0.31c-0.1-0.02-0.46-0.04-1.08-0.06
				l-0.12-0.12v-0.7l0.12-0.14c1.5-0.14,3.07-0.49,4.72-1.03l0.27,0.16l-0.02,2.09l2.14-1.79c0.55-0.22,1.15-0.34,1.81-0.34
				c1.32,0,2.31,0.4,2.97,1.2c0.53,0.65,0.8,1.6,0.8,2.85c0,0.14-0.02,0.72-0.05,1.73s-0.05,1.74-0.05,2.17
				c0,1.25,0.02,2.05,0.06,2.4c0.04,0.34,0.14,0.56,0.29,0.65s0.58,0.14,1.3,0.16l0.11,0.12v0.74H110.37z"/>
			<path class="st1" d="M124.33,37.52l-0.12,0.12c-0.81-0.06-1.55-0.09-2.21-0.09c-0.62,0-1.47,0.03-2.53,0.09l-0.11-0.09
				c0.03-0.41,0.05-1.09,0.05-2.04c-0.3,0.25-0.73,0.63-1.28,1.15c-0.69,0.64-1.14,1.02-1.35,1.15c-0.27,0.12-0.7,0.19-1.3,0.19
				c-1.42,0-2.57-0.54-3.44-1.61s-1.31-2.46-1.31-4.16c0-1.65,0.34-2.94,1.01-3.86c0.17-0.24,0.69-0.67,1.55-1.28
				c1-0.71,1.72-1.17,2.18-1.36c0.4-0.17,0.91-0.25,1.52-0.25c0.86,0,1.67,0.18,2.42,0.55v-0.7c0-2.19-0.05-3.47-0.16-3.86
				c-0.06-0.22-0.23-0.35-0.51-0.4c-0.13-0.02-0.51-0.05-1.15-0.07l-0.12-0.14v-0.69l0.12-0.14c1.6-0.17,3.2-0.51,4.82-1.03
				l0.27,0.15c0,0.03-0.02,0.44-0.05,1.23c-0.08,1.79-0.11,4.47-0.11,8.05v4.03c0,2.33,0.05,3.62,0.16,3.85
				c0.07,0.14,0.16,0.23,0.27,0.26c0.18,0.06,0.6,0.11,1.25,0.16l0.12,0.12L124.33,37.52L124.33,37.52z M119.41,31.01v-2.34
				c-0.6-0.71-1.17-1.17-1.72-1.37c-0.37-0.13-0.77-0.2-1.2-0.2c-1.15,0-1.89,0.59-2.22,1.77c-0.18,0.66-0.27,1.39-0.27,2.19
				c0,1.72,0.4,3,1.21,3.83c0.42,0.44,0.99,0.66,1.71,0.66c0.59,0,1.14-0.19,1.64-0.56c0.46-0.33,0.73-0.69,0.81-1.07
				C119.39,33.8,119.41,32.83,119.41,31.01z"/>
			<path class="st1" d="M135.81,30.56c0,0.14,0,0.35-0.01,0.64l-0.14,0.17c-1.1,0.3-2.55,0.45-4.36,0.45
				c-0.32,0-0.81,0.01-1.47,0.02c-0.66,0.01-1.15,0.02-1.48,0.02c0.05,1.22,0.43,2.23,1.13,3.03c0.74,0.86,1.7,1.28,2.89,1.28
				c0.8,0,1.75-0.27,2.84-0.82l0.3,0.36l-0.55,1.23c-1.21,0.77-2.53,1.16-3.95,1.16c-1.87,0-3.32-0.53-4.36-1.58
				c-1.03-1.06-1.55-2.56-1.55-4.51c0-2.32,0.55-3.9,1.66-4.76c1.53-1.18,2.98-1.77,4.35-1.77c1.49,0,2.64,0.43,3.45,1.28
				C135.39,27.64,135.81,28.91,135.81,30.56z M132.56,30.24c0-2.24-0.7-3.37-2.09-3.37c-1.47,0-2.21,1.11-2.21,3.34v0.27
				c0.48,0.08,1.34,0.11,2.57,0.11c0.64,0,1.21-0.04,1.72-0.11C132.55,30.37,132.56,30.29,132.56,30.24z"/>
			<path class="st1" d="M151.17,37.49l-0.12,0.12c-1.25-0.04-2.03-0.06-2.36-0.06c-0.27,0-0.68,0.01-1.22,0.03
				c-0.54,0.02-0.94,0.03-1.21,0.03l-0.1-0.1c0.07-0.68,0.1-1.33,0.1-1.94c-0.43,0.32-1.19,1.01-2.27,2.07
				c-0.54,0.21-1.12,0.31-1.73,0.31c-1.12,0-2.01-0.31-2.65-0.92c-0.65-0.61-0.97-1.49-0.97-2.64c0-0.14,0.01-0.44,0.02-0.9
				c0.02-0.46,0.02-0.9,0.02-1.32v-1.6c0-1.64-0.06-2.6-0.19-2.87c-0.08-0.17-0.26-0.27-0.54-0.31c-0.1-0.02-0.46-0.04-1.1-0.06
				l-0.12-0.12v-0.7l0.12-0.14c1.59-0.14,3.19-0.49,4.82-1.03l0.27,0.16c-0.11,1.38-0.16,2.65-0.16,3.83v2.43
				c0,1.14,0.04,1.92,0.11,2.33c0.08,0.5,0.28,0.88,0.59,1.13c0.31,0.26,0.73,0.39,1.25,0.39c0.65,0,1.22-0.21,1.71-0.62
				c0.46-0.42,0.71-0.89,0.73-1.42c0.02-0.41,0.03-0.66,0.03-0.76v-2.23c0-1.63-0.06-2.58-0.19-2.87c-0.08-0.17-0.25-0.27-0.52-0.31
				c-0.1-0.02-0.47-0.04-1.1-0.06l-0.14-0.12v-0.7l0.14-0.14c1.58-0.14,3.19-0.49,4.82-1.03l0.26,0.16
				c-0.11,1.25-0.16,2.52-0.16,3.83v3.91c0,1.75,0.05,2.75,0.15,2.98c0.05,0.12,0.13,0.19,0.25,0.22c0.2,0.06,0.63,0.11,1.3,0.15
				l0.14,0.12v0.77H151.17z"/>
			<path class="st1" d="M161.74,33.64c0,1.34-0.5,2.42-1.51,3.23c-1.01,0.82-2.33,1.23-3.96,1.23c-1.15,0-2.39-0.25-3.71-0.75
				l-0.14-0.19c0.07-0.76,0.12-1.36,0.14-1.78l0.06-1.57l0.12-0.14h0.74l0.15,0.14c0.03,0.93,0.07,1.48,0.11,1.64
				c0.71,0.91,1.63,1.36,2.78,1.36c0.73,0,1.32-0.18,1.76-0.54c0.44-0.36,0.66-0.84,0.66-1.43c0-0.76-0.33-1.26-1-1.51
				c-0.28-0.11-0.84-0.25-1.68-0.42c-1.37-0.29-2.29-0.62-2.75-1c-0.71-0.57-1.06-1.4-1.06-2.51c0-1.2,0.44-2.17,1.31-2.9
				c0.91-0.76,2.15-1.15,3.71-1.15c1.33,0,2.43,0.22,3.32,0.67l0.11,0.2c-0.09,0.37-0.16,1.33-0.21,2.88l-0.14,0.12h-0.72
				l-0.14-0.12c-0.03-0.6-0.09-1.08-0.17-1.46c-0.52-0.66-1.28-1-2.28-1c-0.65,0-1.18,0.16-1.59,0.47
				c-0.42,0.32-0.62,0.73-0.62,1.25c0,0.69,0.35,1.15,1.06,1.38c0.31,0.1,0.93,0.24,1.84,0.42c1.4,0.27,2.32,0.59,2.77,0.95
				C161.39,31.69,161.74,32.53,161.74,33.64z"/>
		</g>
	</g>
	<g>
		<g>
			<path class="st1" d="M87.32,43.22l0.06,0.06c-0.04,0.39-0.06,1.08-0.06,2.06l-0.05,0.05h-0.31l-0.05-0.06l-0.07-0.6
				c-0.03-0.32-0.06-0.52-0.08-0.6c-0.02-0.07-0.05-0.12-0.1-0.16c-0.04-0.03-0.19-0.06-0.43-0.08c-0.24-0.02-0.51-0.03-0.81-0.03
				h-1.24c-0.03,0.99-0.05,1.56-0.05,1.72v3.83l0.01,1.28c0,0.5,0.02,0.82,0.04,0.96c0.02,0.15,0.05,0.24,0.09,0.29
				c0.04,0.05,0.12,0.09,0.24,0.12c0.12,0.03,0.41,0.06,0.88,0.08l0.05,0.04v0.33l-0.05,0.05c-1.12-0.03-1.75-0.05-1.88-0.05
				c-0.14,0-0.76,0.02-1.87,0.05l-0.05-0.05v-0.33l0.05-0.04c0.41-0.02,0.68-0.04,0.82-0.07c0.13-0.03,0.22-0.06,0.27-0.1
				c0.05-0.04,0.08-0.13,0.12-0.27c0.03-0.14,0.05-0.44,0.05-0.91l0.01-1.39v-3.83c0-0.07-0.02-0.64-0.05-1.72h-0.98
				c-0.4,0-0.75,0.01-1.05,0.03c-0.29,0.02-0.46,0.06-0.51,0.14c-0.05,0.07-0.09,0.31-0.13,0.71l-0.07,0.6l-0.06,0.06h-0.3
				l-0.05-0.05c-0.01-1.06-0.03-1.74-0.06-2.06l0.06-0.06c0.76,0.04,2.03,0.05,3.81,0.05C85.32,43.27,86.59,43.25,87.32,43.22z"/>
			<path class="st1" d="M92.49,51.54l-0.21,0.47c-0.46,0.29-0.86,0.48-1.22,0.57c-0.36,0.09-0.68,0.13-0.96,0.13
				c-0.53,0-1.02-0.1-1.5-0.31c-0.47-0.21-0.85-0.55-1.15-1.05c-0.3-0.49-0.44-1.08-0.44-1.77c0-0.46,0.06-0.88,0.17-1.25
				s0.23-0.65,0.36-0.83c0.12-0.18,0.34-0.38,0.63-0.6c0.3-0.22,0.61-0.39,0.95-0.53c0.33-0.13,0.69-0.2,1.08-0.2
				c0.53,0,0.99,0.12,1.39,0.37s0.68,0.56,0.85,0.95c0.16,0.39,0.24,0.8,0.24,1.23c0,0.14-0.01,0.27-0.02,0.39l-0.07,0.07
				c-0.3,0.07-0.7,0.11-1.2,0.13s-0.84,0.03-1,0.03h-2.11c0.01,0.91,0.24,1.58,0.68,2c0.45,0.43,0.99,0.64,1.64,0.64
				c0.31,0,0.6-0.05,0.88-0.16s0.58-0.25,0.9-0.44L92.49,51.54z M88.28,48.85c0.08,0.01,0.38,0.03,0.91,0.05s0.92,0.03,1.17,0.03
				c0.61,0,0.98-0.01,1.11-0.03c0-0.1,0.01-0.19,0.01-0.24c0-0.68-0.14-1.18-0.41-1.52c-0.28-0.33-0.65-0.5-1.13-0.5
				c-0.52,0-0.93,0.19-1.22,0.56C88.43,47.57,88.28,48.12,88.28,48.85z"/>
			<path class="st1" d="M98.84,51.8l-0.26,0.44c-0.57,0.31-1.2,0.47-1.89,0.47c-0.96,0-1.71-0.29-2.23-0.86
				c-0.53-0.57-0.79-1.31-0.79-2.22c0-0.41,0.04-0.78,0.13-1.1c0.09-0.32,0.2-0.59,0.34-0.8s0.29-0.38,0.46-0.5
				c0.17-0.12,0.45-0.29,0.84-0.51c0.4-0.22,0.7-0.36,0.9-0.43c0.2-0.07,0.48-0.1,0.84-0.1c0.68,0,1.24,0.13,1.67,0.39
				c-0.08,0.5-0.15,1.05-0.19,1.66l-0.06,0.05h-0.27l-0.06-0.06c-0.02-0.37-0.04-0.62-0.07-0.74c-0.03-0.13-0.21-0.26-0.52-0.41
				c-0.32-0.14-0.66-0.22-1.02-0.22s-0.68,0.08-0.96,0.23c-0.28,0.15-0.49,0.4-0.63,0.74c-0.14,0.34-0.21,0.76-0.21,1.23
				c0,0.4,0.06,0.8,0.17,1.18c0.11,0.38,0.26,0.7,0.45,0.95s0.43,0.45,0.74,0.61c0.31,0.15,0.65,0.23,1.03,0.23
				c0.24,0,0.47-0.03,0.69-0.09c0.23-0.06,0.49-0.16,0.78-0.3L98.84,51.8z"/>
			<path class="st1" d="M101.34,42.77l0.13,0.08c-0.05,0.5-0.07,1.51-0.07,3.03v1.62c0.37-0.3,0.71-0.6,1.03-0.9
				c0.09-0.08,0.18-0.15,0.26-0.18c0.08-0.04,0.22-0.08,0.4-0.12c0.19-0.04,0.38-0.07,0.58-0.07c0.33,0,0.66,0.07,0.97,0.2
				c0.31,0.14,0.55,0.3,0.71,0.48c0.16,0.19,0.27,0.41,0.33,0.66s0.09,0.57,0.09,0.94v1.16c0,0.07,0.01,0.62,0.03,1.64
				c0.01,0.42,0.06,0.66,0.14,0.74s0.35,0.12,0.81,0.12l0.05,0.05v0.28l-0.05,0.05c-0.56-0.03-0.93-0.05-1.13-0.05
				c-0.1,0-0.42,0.02-0.96,0.05l-0.08-0.07c0.06-0.57,0.09-1.31,0.09-2.23v-0.86c0-0.52-0.01-0.89-0.04-1.12
				c-0.02-0.23-0.1-0.43-0.22-0.62s-0.29-0.33-0.49-0.43c-0.2-0.1-0.45-0.15-0.74-0.15c-0.3,0-0.55,0.04-0.75,0.12
				s-0.4,0.22-0.61,0.41s-0.33,0.35-0.37,0.48c-0.04,0.13-0.06,0.38-0.06,0.75V50c0,0.1,0.01,0.41,0.03,0.93
				c0.02,0.52,0.04,0.83,0.06,0.92s0.05,0.15,0.09,0.19c0.04,0.04,0.09,0.06,0.14,0.08c0.06,0.01,0.29,0.03,0.71,0.06l0.06,0.05
				v0.28l-0.05,0.06c-0.55-0.03-1.08-0.05-1.58-0.05s-1.03,0.02-1.58,0.05l-0.06-0.06v-0.28l0.06-0.05
				c0.43-0.03,0.67-0.05,0.72-0.06c0.06-0.01,0.1-0.04,0.14-0.08c0.04-0.04,0.07-0.11,0.09-0.19c0.02-0.09,0.03-0.37,0.05-0.85
				c0.02-0.48,0.03-0.84,0.03-1.09V46.5l-0.03-1.39c-0.01-0.49-0.03-0.82-0.04-1.01c-0.02-0.19-0.04-0.3-0.06-0.34
				c-0.03-0.04-0.07-0.06-0.14-0.08c-0.07-0.02-0.33-0.03-0.8-0.03l-0.06-0.06v-0.28l0.05-0.06C100.06,43.16,100.77,43,101.34,42.77
				z"/>
			<path class="st1" d="M109.19,46.24l0.12,0.09c-0.03,0.29-0.04,0.68-0.05,1.16c0.35-0.29,0.68-0.58,1-0.88
				c0.09-0.08,0.18-0.15,0.26-0.18c0.08-0.04,0.22-0.08,0.4-0.12c0.19-0.04,0.38-0.07,0.58-0.07c0.33,0,0.66,0.07,0.97,0.2
				c0.31,0.14,0.55,0.3,0.71,0.48c0.16,0.19,0.27,0.41,0.33,0.66s0.09,0.57,0.09,0.94v1.16c0,0.07,0.01,0.62,0.03,1.64
				c0.01,0.42,0.05,0.66,0.14,0.74c0.08,0.08,0.36,0.12,0.82,0.12l0.05,0.05v0.28l-0.05,0.05c-0.56-0.03-0.93-0.05-1.13-0.05
				c-0.11,0-0.43,0.02-0.96,0.05l-0.08-0.07c0.06-0.57,0.09-1.31,0.09-2.23V49.4c0-0.52-0.01-0.89-0.04-1.12s-0.1-0.43-0.22-0.62
				s-0.29-0.33-0.49-0.43c-0.21-0.1-0.45-0.15-0.74-0.15c-0.23,0-0.42,0.02-0.58,0.07s-0.34,0.14-0.55,0.28
				c-0.2,0.14-0.35,0.28-0.45,0.4c-0.1,0.12-0.15,0.24-0.17,0.35s-0.03,0.34-0.03,0.69v1.14c0,0.1,0.01,0.41,0.03,0.93
				c0.02,0.52,0.04,0.83,0.06,0.92s0.05,0.15,0.09,0.19c0.04,0.04,0.09,0.06,0.14,0.08c0.06,0.01,0.29,0.03,0.71,0.06l0.06,0.05
				v0.28l-0.05,0.06c-0.55-0.03-1.08-0.05-1.58-0.05s-1.03,0.02-1.58,0.05l-0.06-0.06v-0.28l0.06-0.05
				c0.43-0.03,0.66-0.05,0.72-0.06c0.05-0.01,0.1-0.04,0.14-0.08c0.04-0.04,0.07-0.11,0.09-0.19c0.02-0.09,0.03-0.37,0.05-0.85
				c0.02-0.48,0.03-0.84,0.03-1.09v-1.29c0-0.18-0.01-0.41-0.03-0.72c-0.02-0.3-0.03-0.49-0.04-0.56c-0.01-0.07-0.04-0.12-0.1-0.15
				c-0.06-0.03-0.17-0.05-0.34-0.05l-0.55-0.01l-0.06-0.05v-0.28l0.05-0.05C107.91,46.64,108.62,46.47,109.19,46.24z"/>
			<path class="st1" d="M115.23,49.5c0-0.52,0.11-1.02,0.32-1.51c0.21-0.48,0.59-0.9,1.12-1.26c0.53-0.35,1.16-0.53,1.9-0.53
				c0.92,0,1.67,0.29,2.25,0.87s0.87,1.33,0.87,2.24c0,1-0.33,1.83-1,2.48c-0.66,0.65-1.46,0.97-2.4,0.97
				c-0.61,0-1.16-0.17-1.64-0.5s-0.84-0.73-1.07-1.21C115.34,50.58,115.23,50.06,115.23,49.5z M116.47,49.04
				c0,0.61,0.08,1.16,0.24,1.65c0.16,0.48,0.41,0.87,0.75,1.17c0.34,0.29,0.73,0.44,1.17,0.44c0.52,0,0.94-0.21,1.28-0.61
				c0.34-0.41,0.51-1.03,0.51-1.85c0-0.93-0.18-1.7-0.55-2.29c-0.37-0.6-0.89-0.89-1.58-0.89c-0.57,0-1.01,0.21-1.33,0.62
				C116.63,47.67,116.47,48.27,116.47,49.04z"/>
			<path class="st1" d="M124.59,42.77l0.12,0.08c-0.05,0.5-0.07,1.51-0.07,3.03V50c0,0.1,0.01,0.41,0.03,0.93
				c0.02,0.52,0.04,0.83,0.06,0.92s0.05,0.15,0.09,0.19c0.04,0.04,0.09,0.06,0.15,0.08c0.06,0.01,0.29,0.03,0.71,0.06l0.06,0.05
				v0.28l-0.05,0.06c-0.55-0.03-1.08-0.05-1.58-0.05s-1.03,0.02-1.58,0.05l-0.06-0.06v-0.28l0.06-0.05
				c0.43-0.03,0.66-0.05,0.72-0.06s0.1-0.04,0.15-0.08c0.04-0.04,0.07-0.11,0.09-0.19c0.02-0.09,0.03-0.37,0.05-0.85
				c0.02-0.48,0.03-0.84,0.03-1.09V46.5l-0.03-1.39c-0.01-0.49-0.03-0.82-0.04-1.01c-0.02-0.19-0.04-0.3-0.06-0.34
				c-0.03-0.04-0.07-0.06-0.14-0.08c-0.07-0.02-0.33-0.03-0.79-0.03l-0.06-0.06v-0.28l0.05-0.06
				C123.31,43.16,124.01,43,124.59,42.77z"/>
			<path class="st1" d="M126.49,49.5c0-0.52,0.11-1.02,0.32-1.51c0.21-0.48,0.59-0.9,1.12-1.26c0.53-0.35,1.16-0.53,1.9-0.53
				c0.92,0,1.67,0.29,2.25,0.87s0.87,1.33,0.87,2.24c0,1-0.33,1.83-1,2.48c-0.66,0.65-1.46,0.97-2.4,0.97
				c-0.61,0-1.16-0.17-1.64-0.5s-0.84-0.73-1.07-1.21C126.61,50.58,126.49,50.06,126.49,49.5z M127.74,49.04
				c0,0.61,0.08,1.16,0.24,1.65c0.16,0.48,0.41,0.87,0.75,1.17c0.34,0.29,0.73,0.44,1.17,0.44c0.52,0,0.95-0.21,1.28-0.61
				c0.34-0.41,0.51-1.03,0.51-1.85c0-0.93-0.18-1.7-0.55-2.29c-0.37-0.6-0.89-0.89-1.58-0.89c-0.57,0-1.01,0.21-1.33,0.62
				C127.9,47.67,127.74,48.27,127.74,49.04z"/>
			<path class="st1" d="M140.65,46.7l0.05,0.12c-0.18,0.28-0.29,0.46-0.33,0.54h-1.22c0.12,0.24,0.18,0.49,0.18,0.76
				c0,0.31-0.07,0.61-0.21,0.91c-0.14,0.29-0.34,0.54-0.59,0.75s-0.54,0.37-0.86,0.49c-0.32,0.12-0.69,0.18-1.1,0.18h-0.3
				c-0.26,0.21-0.43,0.36-0.5,0.46s-0.11,0.2-0.11,0.31c0,0.19,0.09,0.33,0.27,0.41c0.18,0.08,0.54,0.12,1.1,0.12l1.47-0.02
				c0.46,0,0.82,0.05,1.07,0.16s0.45,0.31,0.6,0.59c0.15,0.28,0.23,0.58,0.23,0.9c0,0.48-0.16,0.96-0.47,1.44s-0.77,0.85-1.36,1.09
				c-0.59,0.25-1.22,0.38-1.89,0.38c-0.38,0-0.74-0.04-1.07-0.13c-0.34-0.08-0.63-0.21-0.88-0.38s-0.45-0.39-0.61-0.66
				c-0.15-0.27-0.23-0.55-0.23-0.85c0-0.16,0.02-0.33,0.07-0.51s0.14-0.37,0.28-0.58l1.19-0.66c-0.38-0.12-0.62-0.24-0.72-0.35
				c-0.1-0.12-0.15-0.26-0.15-0.42c0-0.17,0.06-0.36,0.16-0.59l1.06-0.76c-0.62-0.16-1.04-0.41-1.26-0.73
				c-0.22-0.32-0.33-0.68-0.33-1.06c0-0.35,0.08-0.69,0.23-1.02c0.15-0.32,0.38-0.58,0.69-0.77s0.66-0.35,1.04-0.46
				c0.38-0.11,0.73-0.17,1.05-0.17c0.55,0,1.07,0.18,1.57,0.53C139.54,46.72,140.17,46.71,140.65,46.7z M137.23,52.63
				c-0.71,0-1.11,0.01-1.22,0.03s-0.26,0.09-0.46,0.22c-0.2,0.13-0.36,0.31-0.48,0.54s-0.19,0.48-0.19,0.76
				c0,0.5,0.18,0.9,0.55,1.21c0.37,0.31,0.86,0.47,1.47,0.47c0.46,0,0.89-0.1,1.28-0.29c0.39-0.19,0.68-0.45,0.86-0.78
				c0.19-0.32,0.28-0.64,0.28-0.93c0-0.3-0.08-0.55-0.23-0.77c-0.16-0.21-0.36-0.34-0.61-0.39
				C138.24,52.66,137.82,52.63,137.23,52.63z M135.3,48.22c0,0.27,0.05,0.55,0.16,0.86c0.1,0.31,0.27,0.54,0.51,0.7
				c0.23,0.16,0.5,0.24,0.79,0.24c0.39,0,0.73-0.13,1.01-0.38s0.42-0.65,0.42-1.19c0-0.46-0.13-0.87-0.39-1.23s-0.63-0.55-1.1-0.55
				c-0.4,0-0.73,0.13-1,0.39C135.44,47.32,135.3,47.71,135.3,48.22z"/>
			<path class="st1" d="M141.18,56.08c0.15-0.37,0.26-0.71,0.34-1.01h0.16c0.21,0.23,0.45,0.35,0.7,0.35c0.31,0,0.58-0.15,0.81-0.46
				c0.23-0.31,0.56-0.99,0.98-2.05c-0.17-0.47-0.34-0.91-0.51-1.33l-1.04-2.59c-0.11-0.27-0.27-0.65-0.49-1.15
				c-0.21-0.5-0.34-0.77-0.38-0.82c-0.04-0.05-0.1-0.1-0.16-0.14c-0.07-0.04-0.24-0.09-0.53-0.12l-0.05-0.05v-0.26l0.06-0.05
				c0.5,0.03,1.02,0.05,1.55,0.05c0.62,0,1.1-0.02,1.44-0.05l0.05,0.05v0.26l-0.05,0.05c-0.05,0-0.18,0.01-0.4,0.03
				s-0.36,0.05-0.41,0.1c-0.06,0.05-0.08,0.12-0.08,0.19s0.07,0.32,0.2,0.73c0.14,0.41,0.27,0.77,0.4,1.09l0.41,1.03
				c0.27,0.67,0.48,1.17,0.63,1.49l0.35-0.77c0.12-0.28,0.3-0.71,0.53-1.28l0.55-1.39c0.14-0.36,0.22-0.58,0.24-0.67
				s0.03-0.15,0.03-0.19c0-0.1-0.03-0.16-0.11-0.2c-0.07-0.03-0.23-0.07-0.47-0.09l-0.28-0.04l-0.05-0.05v-0.29l0.05-0.05
				c0.37,0.03,0.8,0.05,1.31,0.05c0.46,0,0.83-0.02,1.1-0.05l0.05,0.05v0.29l-0.05,0.05c-0.16,0-0.29,0.03-0.39,0.07
				c-0.1,0.04-0.19,0.11-0.28,0.21s-0.25,0.38-0.47,0.85c-0.23,0.47-0.46,0.95-0.68,1.45l-0.64,1.41l-1.52,3.55
				c-0.13,0.31-0.29,0.64-0.49,0.99c-0.19,0.35-0.43,0.6-0.72,0.76c-0.28,0.16-0.58,0.23-0.9,0.23
				C141.69,56.29,141.43,56.22,141.18,56.08z"/>
		</g>
	</g>
</g>
<line class="st2" x1="61.82" y1="20.62" x2="61.82" y2="54.92"/>
<line class="st3" x1="126.99" y1="200.61" x2="126.99" y2="234.91"/>
</svg>
