<?xml version="1.0" encoding="utf-8"?>
<!-- Generator: Adobe Illustrator 24.0.0, SVG Export Plug-In . SVG Version: 6.00 Build 0)  -->
<svg version="1.1" id="Layer_1" xmlns="http://www.w3.org/2000/svg" xmlns:xlink="http://www.w3.org/1999/xlink" x="0px" y="0px"
	 viewBox="0 0 288 560" style="enable-background:new 0 0 288 560;" xml:space="preserve">
<style type="text/css">
	.st0{fill:#FE7915;}
	.st1{fill:#353535;}
	.st2{opacity:0.91;fill:#FF6600;stroke:#F7931E;stroke-miterlimit:10;}
	.st3{display:none;fill:#FE7815;stroke:#000000;stroke-miterlimit:10;}
</style>
<g>
	<g>
		<path class="st0" d="M103.25,208.92c-0.22-0.64-0.17-1.28-0.04-1.8c0.62-0.42,1.03-1.12,1.03-1.93c0-1.28-1.04-2.32-2.32-2.32
			c-1.28,0-2.32,1.04-2.32,2.32c0,0.88,0.49,1.64,1.21,2.04c0.15,0.46,0.24,0.99,0.11,1.5c-0.78,0.37-1.32,1.17-1.32,2.09
			c0,1.28,1.04,2.32,2.32,2.32c1.28,0,2.32-1.04,2.32-2.32C104.24,210.03,103.84,209.34,103.25,208.92z"/>
		<path class="st0" d="M103.45,200.52c0,0.85-0.69,1.54-1.54,1.54c-0.85,0-1.54-0.69-1.54-1.54c0-0.85,0.69-1.54,1.54-1.54
			C102.77,198.99,103.45,199.67,103.45,200.52z"/>
		<path class="st0" d="M102.84,196.87c0,0.51-0.42,0.93-0.93,0.93c-0.51,0-0.93-0.42-0.93-0.93c0-0.51,0.42-0.93,0.93-0.93
			C102.43,195.94,102.84,196.36,102.84,196.87z"/>
		<path class="st0" d="M108.47,212.33c0.29-0.61,0.79-1.02,1.25-1.3c0.73,0.14,1.52-0.07,2.09-0.64c0.91-0.91,0.91-2.38,0-3.28
			c-0.91-0.91-2.38-0.91-3.28,0c-0.62,0.62-0.82,1.51-0.59,2.29c-0.21,0.43-0.53,0.87-0.98,1.14c-0.82-0.29-1.76-0.11-2.41,0.54
			c-0.91,0.91-0.91,2.38,0,3.28c0.91,0.91,2.38,0.91,3.28,0C108.38,213.81,108.6,213.05,108.47,212.33z"/>
		<path class="st0" d="M114.55,206.54c-0.6,0.6-1.58,0.6-2.18,0c-0.6-0.6-0.6-1.57,0-2.18c0.6-0.6,1.58-0.6,2.18,0
			C115.15,204.96,115.15,205.94,114.55,206.54z"/>
		<path class="st0" d="M116.71,203.52c-0.36,0.36-0.95,0.36-1.31,0c-0.36-0.36-0.36-0.95,0-1.31c0.36-0.36,0.95-0.36,1.31,0
			C117.07,202.57,117.07,203.16,116.71,203.52z"/>
		<path class="st0" d="M109.76,218.43c0.64-0.22,1.28-0.17,1.8-0.04c0.42,0.62,1.12,1.02,1.92,1.02c1.28,0,2.32-1.04,2.32-2.32
			c0-1.28-1.04-2.32-2.32-2.32c-0.88,0-1.64,0.49-2.04,1.21c-0.46,0.15-0.99,0.24-1.5,0.11c-0.37-0.78-1.17-1.32-2.09-1.32
			c-1.28,0-2.32,1.04-2.32,2.32c0,1.28,1.04,2.32,2.32,2.32C108.64,219.42,109.33,219.03,109.76,218.43z"/>
		<path class="st0" d="M118.15,218.64c-0.85,0-1.54-0.69-1.54-1.54c0-0.85,0.69-1.54,1.54-1.54c0.85,0,1.54,0.69,1.54,1.54
			C119.69,217.95,119,218.64,118.15,218.64z"/>
		<path class="st0" d="M121.81,218.03c-0.51,0-0.93-0.42-0.93-0.93c0-0.51,0.42-0.93,0.93-0.93c0.51,0,0.93,0.42,0.93,0.93
			C122.74,217.61,122.32,218.03,121.81,218.03z"/>
		<path class="st0" d="M106.35,223.65c0.61,0.29,1.02,0.79,1.3,1.25c-0.14,0.73,0.07,1.52,0.64,2.09c0.91,0.91,2.38,0.91,3.28,0
			c0.9-0.91,0.9-2.38,0-3.28c-0.62-0.62-1.51-0.82-2.29-0.59c-0.43-0.21-0.87-0.53-1.14-0.98c0.29-0.82,0.11-1.76-0.54-2.41
			c-0.91-0.91-2.38-0.91-3.28,0c-0.91,0.91-0.91,2.38,0,3.28C104.86,223.57,105.63,223.78,106.35,223.65z"/>
		<path class="st0" d="M112.14,229.74c-0.6-0.6-0.6-1.58,0-2.18c0.6-0.6,1.58-0.6,2.18,0c0.6,0.6,0.6,1.58,0,2.18
			C113.71,230.34,112.74,230.34,112.14,229.74z"/>
		<path class="st0" d="M115.15,231.89c-0.36-0.36-0.36-0.95,0-1.31c0.36-0.36,0.95-0.36,1.32,0c0.36,0.36,0.36,0.95,0,1.31
			C116.11,232.26,115.52,232.26,115.15,231.89z"/>
		<path class="st0" d="M100.25,224.94c0.22,0.64,0.17,1.28,0.04,1.8c-0.62,0.42-1.03,1.12-1.03,1.92c0,1.28,1.04,2.32,2.32,2.32
			c1.28,0,2.32-1.04,2.32-2.32c0-0.88-0.49-1.64-1.21-2.04c-0.15-0.46-0.24-0.99-0.11-1.5c0.78-0.37,1.32-1.17,1.32-2.09
			c0-1.28-1.04-2.32-2.32-2.32c-1.28,0-2.32,1.04-2.32,2.32C99.26,223.83,99.65,224.52,100.25,224.94z"/>
		<path class="st0" d="M100.04,233.34c0-0.85,0.69-1.54,1.54-1.54c0.85,0,1.54,0.69,1.54,1.54c0,0.85-0.69,1.54-1.54,1.54
			C100.73,234.87,100.04,234.19,100.04,233.34z"/>
		<path class="st0" d="M100.65,236.99c0-0.51,0.42-0.93,0.93-0.93c0.51,0,0.93,0.42,0.93,0.93c0,0.51-0.42,0.93-0.93,0.93
			C101.06,237.92,100.65,237.5,100.65,236.99z"/>
		<path class="st0" d="M95.02,221.53c-0.29,0.61-0.79,1.02-1.25,1.3c-0.73-0.14-1.52,0.07-2.09,0.64c-0.91,0.91-0.91,2.38,0,3.28
			c0.91,0.91,2.38,0.91,3.28,0c0.62-0.62,0.82-1.51,0.59-2.29c0.21-0.43,0.53-0.87,0.98-1.14c0.82,0.29,1.76,0.11,2.41-0.54
			c0.91-0.91,0.91-2.38,0-3.28c-0.91-0.91-2.38-0.91-3.28,0C95.11,220.05,94.9,220.81,95.02,221.53z"/>
		<path class="st0" d="M88.94,227.32c0.6-0.6,1.57-0.6,2.18,0c0.6,0.6,0.6,1.57,0,2.18c-0.6,0.6-1.58,0.6-2.18,0
			C88.34,228.9,88.34,227.92,88.94,227.32z"/>
		<path class="st0" d="M86.78,230.34c0.36-0.36,0.95-0.36,1.31,0c0.36,0.36,0.36,0.95,0,1.31c-0.36,0.36-0.95,0.36-1.31,0
			C86.42,231.29,86.42,230.7,86.78,230.34z"/>
		<path class="st0" d="M93.74,215.43c-0.63,0.22-1.28,0.17-1.8,0.04c-0.42-0.62-1.12-1.02-1.92-1.02c-1.28,0-2.32,1.04-2.32,2.32
			c0,1.28,1.04,2.32,2.32,2.32c0.88,0,1.64-0.49,2.04-1.21c0.46-0.15,0.99-0.24,1.5-0.11c0.37,0.78,1.17,1.32,2.09,1.32
			c1.28,0,2.32-1.04,2.32-2.32c0-1.28-1.04-2.32-2.32-2.32C94.85,214.44,94.16,214.83,93.74,215.43z"/>
		<path class="st0" d="M85.34,215.22c0.85,0,1.54,0.69,1.54,1.54c0,0.85-0.69,1.54-1.54,1.54c-0.85,0-1.54-0.69-1.54-1.54
			C83.8,215.91,84.49,215.22,85.34,215.22z"/>
		<path class="st0" d="M81.69,215.83c0.51,0,0.93,0.42,0.93,0.93c0,0.51-0.42,0.93-0.93,0.93c-0.51,0-0.93-0.42-0.93-0.93
			S81.17,215.83,81.69,215.83z"/>
		<path class="st0" d="M97.14,210.21c-0.61-0.29-1.02-0.79-1.3-1.25c0.14-0.73-0.07-1.52-0.64-2.09c-0.91-0.91-2.38-0.91-3.28,0
			c-0.91,0.91-0.91,2.38,0,3.28c0.62,0.62,1.51,0.82,2.29,0.59c0.43,0.21,0.87,0.53,1.14,0.98c-0.29,0.82-0.11,1.76,0.54,2.41
			c0.91,0.91,2.38,0.91,3.28,0c0.91-0.91,0.91-2.38,0-3.28C98.63,210.29,97.86,210.08,97.14,210.21z"/>
		<path class="st0" d="M91.35,204.12c0.6,0.6,0.6,1.58,0,2.18c-0.6,0.6-1.57,0.6-2.18,0c-0.6-0.6-0.6-1.58,0-2.18
			C89.78,203.52,90.75,203.52,91.35,204.12z"/>
		<path class="st0" d="M88.34,201.97c0.36,0.36,0.36,0.95,0,1.31c-0.36,0.36-0.95,0.36-1.31,0c-0.36-0.36-0.36-0.95,0-1.31
			C87.39,201.61,87.97,201.61,88.34,201.97z"/>
	</g>
	<g>
		<g>
			<path class="st1" d="M144.58,211.85c0,1.37-0.39,2.58-1.17,3.63c-0.68,0.92-1.57,1.61-2.68,2.06c-1.01,0.42-2.22,0.62-3.63,0.62
				c-1.75,0-3.46-0.4-5.13-1.2l-0.15-0.27c0.23-0.96,0.35-2.31,0.35-4.08l0.12-0.12h0.8l0.11,0.12v0.29c0,0.47,0.05,1.08,0.15,1.84
				c0.3,0.53,0.84,0.99,1.61,1.37c0.81,0.4,1.64,0.6,2.52,0.6c1.65,0,2.78-0.57,3.42-1.72c0.32-0.59,0.49-1.2,0.49-1.83
				c0-1.06-0.44-1.82-1.33-2.28c-0.44-0.22-1.15-0.41-2.13-0.56c-2.22-0.34-3.68-0.77-4.37-1.28c-1.06-0.78-1.58-1.99-1.58-3.63
				c0-1.7,0.57-3.06,1.72-4.08c1.21-1.06,2.9-1.6,5.06-1.6c1.94,0,3.51,0.31,4.71,0.93l0.09,0.3c-0.2,0.99-0.32,2.18-0.36,3.56
				l-0.14,0.12h-0.79l-0.12-0.12c-0.03-1-0.07-1.65-0.12-1.94c-0.26-0.39-0.71-0.72-1.35-1c-0.68-0.28-1.39-0.42-2.13-0.42
				c-1.11,0-1.99,0.29-2.64,0.89c-0.61,0.56-0.91,1.28-0.91,2.16c0,0.96,0.34,1.66,1.03,2.11c0.45,0.29,1.51,0.57,3.18,0.83
				c0.17,0.03,0.66,0.11,1.46,0.25c0.49,0.08,0.94,0.2,1.36,0.36c0.84,0.32,1.47,0.8,1.89,1.45
				C144.35,209.91,144.58,210.79,144.58,211.85z"/>
			<path class="st1" d="M160.37,217.54l-0.12,0.12c-1.25-0.04-2.03-0.06-2.36-0.06c-0.27,0-0.68,0.01-1.22,0.03
				c-0.54,0.02-0.94,0.03-1.21,0.03l-0.1-0.1c0.07-0.68,0.1-1.33,0.1-1.94c-0.43,0.32-1.19,1.01-2.27,2.07
				c-0.54,0.21-1.12,0.31-1.73,0.31c-1.12,0-2.01-0.31-2.66-0.92c-0.65-0.61-0.97-1.49-0.97-2.64c0-0.14,0.01-0.44,0.03-0.9
				c0.02-0.46,0.02-0.9,0.02-1.32v-1.6c0-1.64-0.06-2.6-0.19-2.87c-0.08-0.17-0.26-0.27-0.54-0.31c-0.1-0.02-0.47-0.04-1.1-0.06
				l-0.12-0.12v-0.7l0.12-0.14c1.59-0.14,3.19-0.49,4.82-1.03l0.27,0.16c-0.11,1.38-0.16,2.65-0.16,3.83v2.43
				c0,1.14,0.04,1.92,0.11,2.33c0.08,0.5,0.28,0.88,0.59,1.13c0.31,0.26,0.73,0.39,1.25,0.39c0.65,0,1.22-0.21,1.71-0.62
				c0.47-0.42,0.71-0.89,0.73-1.42c0.02-0.41,0.03-0.66,0.03-0.76v-2.23c0-1.63-0.06-2.58-0.19-2.87c-0.07-0.17-0.25-0.27-0.52-0.31
				c-0.1-0.02-0.47-0.04-1.1-0.06l-0.14-0.12v-0.7l0.14-0.14c1.58-0.14,3.19-0.49,4.82-1.03l0.26,0.16
				c-0.11,1.25-0.16,2.52-0.16,3.83v3.91c0,1.75,0.05,2.75,0.15,2.98c0.05,0.12,0.13,0.19,0.25,0.22c0.2,0.06,0.63,0.11,1.3,0.15
				l0.14,0.12V217.54z"/>
			<path class="st1" d="M175.54,217.56l-0.13,0.14c-0.91-0.06-1.69-0.09-2.32-0.09c-0.58,0-1.43,0.03-2.54,0.09l-0.12-0.12
				c0.15-1.85,0.23-3.28,0.23-4.29v-2.44c0-2.03-0.73-3.04-2.19-3.04c-0.76,0-1.36,0.26-1.79,0.79c-0.37,0.44-0.55,0.88-0.55,1.33
				v2.33c0,2.15,0.05,3.47,0.16,3.96c0.07,0.29,0.55,0.44,1.45,0.46l0.12,0.12v0.76l-0.12,0.12c-0.71-0.05-1.76-0.07-3.16-0.07
				c-1.49,0-2.62,0.03-3.4,0.09l-0.12-0.12v-0.76l0.12-0.12c0.8-0.02,1.29-0.09,1.48-0.19c0.17-0.07,0.26-0.27,0.27-0.6
				c0.06-1.08,0.09-2.24,0.09-3.48v-1.78c0-1.66-0.06-2.62-0.19-2.87c-0.08-0.17-0.26-0.27-0.54-0.31c-0.1-0.02-0.46-0.04-1.08-0.06
				l-0.12-0.12v-0.7l0.12-0.14c1.5-0.14,3.07-0.49,4.72-1.03l0.27,0.16l-0.02,2.09l2.14-1.79c0.55-0.22,1.15-0.34,1.81-0.34
				c1.32,0,2.31,0.4,2.97,1.2c0.53,0.65,0.8,1.6,0.8,2.85c0,0.14-0.02,0.72-0.05,1.73c-0.03,1.01-0.05,1.74-0.05,2.17
				c0,1.25,0.02,2.05,0.06,2.4c0.04,0.34,0.14,0.56,0.29,0.65c0.15,0.09,0.58,0.14,1.3,0.16l0.11,0.12V217.56z"/>
			<path class="st1" d="M189.5,217.57l-0.12,0.12c-0.81-0.06-1.55-0.09-2.21-0.09c-0.62,0-1.47,0.03-2.53,0.09l-0.11-0.09
				c0.03-0.41,0.05-1.09,0.05-2.04c-0.3,0.25-0.73,0.63-1.28,1.15c-0.69,0.64-1.14,1.02-1.35,1.15c-0.27,0.12-0.7,0.19-1.3,0.19
				c-1.42,0-2.57-0.54-3.44-1.61c-0.87-1.07-1.31-2.46-1.31-4.16c0-1.65,0.34-2.94,1.01-3.86c0.17-0.24,0.69-0.67,1.55-1.28
				c1-0.71,1.72-1.17,2.18-1.36c0.4-0.17,0.91-0.25,1.52-0.25c0.86,0,1.67,0.18,2.42,0.55v-0.7c0-2.19-0.05-3.47-0.16-3.86
				c-0.06-0.22-0.23-0.35-0.51-0.4c-0.13-0.02-0.51-0.05-1.15-0.07l-0.12-0.14v-0.69l0.12-0.14c1.6-0.17,3.2-0.51,4.82-1.03
				l0.27,0.15c0,0.03-0.02,0.44-0.05,1.23c-0.08,1.79-0.11,4.47-0.11,8.05v4.03c0,2.33,0.05,3.62,0.16,3.85
				c0.07,0.14,0.16,0.23,0.27,0.26c0.18,0.06,0.6,0.11,1.25,0.16l0.12,0.12V217.57z M184.58,211.06v-2.34
				c-0.6-0.71-1.17-1.17-1.72-1.37c-0.37-0.13-0.77-0.2-1.2-0.2c-1.15,0-1.89,0.59-2.22,1.77c-0.18,0.66-0.27,1.39-0.27,2.19
				c0,1.72,0.4,3,1.21,3.83c0.42,0.44,0.99,0.66,1.71,0.66c0.59,0,1.14-0.19,1.64-0.56c0.46-0.33,0.73-0.69,0.81-1.07
				C184.56,213.85,184.58,212.88,184.58,211.06z"/>
			<path class="st1" d="M200.98,210.61c0,0.14,0,0.35-0.01,0.64l-0.14,0.17c-1.1,0.3-2.55,0.45-4.36,0.45
				c-0.32,0-0.81,0.01-1.47,0.02c-0.66,0.01-1.15,0.02-1.48,0.02c0.05,1.22,0.43,2.23,1.13,3.03c0.74,0.86,1.7,1.28,2.89,1.28
				c0.8,0,1.75-0.27,2.84-0.82l0.3,0.36l-0.55,1.23c-1.21,0.77-2.53,1.16-3.95,1.16c-1.87,0-3.32-0.53-4.36-1.58
				c-1.03-1.06-1.55-2.56-1.55-4.51c0-2.32,0.55-3.9,1.66-4.76c1.53-1.18,2.98-1.77,4.35-1.77c1.49,0,2.64,0.43,3.45,1.28
				C200.56,207.69,200.98,208.96,200.98,210.61z M197.73,210.29c0-2.24-0.7-3.37-2.09-3.37c-1.47,0-2.21,1.11-2.21,3.34v0.27
				c0.48,0.08,1.34,0.11,2.57,0.11c0.64,0,1.21-0.04,1.72-0.11C197.72,210.42,197.73,210.34,197.73,210.29z"/>
			<path class="st1" d="M216.34,217.54l-0.12,0.12c-1.25-0.04-2.03-0.06-2.36-0.06c-0.27,0-0.68,0.01-1.22,0.03
				c-0.54,0.02-0.94,0.03-1.21,0.03l-0.1-0.1c0.07-0.68,0.1-1.33,0.1-1.94c-0.43,0.32-1.19,1.01-2.27,2.07
				c-0.54,0.21-1.12,0.31-1.73,0.31c-1.12,0-2.01-0.31-2.65-0.92c-0.65-0.61-0.97-1.49-0.97-2.64c0-0.14,0.01-0.44,0.02-0.9
				c0.02-0.46,0.02-0.9,0.02-1.32v-1.6c0-1.64-0.06-2.6-0.19-2.87c-0.08-0.17-0.26-0.27-0.54-0.31c-0.1-0.02-0.46-0.04-1.1-0.06
				l-0.12-0.12v-0.7l0.12-0.14c1.59-0.14,3.19-0.49,4.82-1.03l0.27,0.16c-0.11,1.38-0.16,2.65-0.16,3.83v2.43
				c0,1.14,0.04,1.92,0.11,2.33c0.08,0.5,0.28,0.88,0.59,1.13c0.31,0.26,0.73,0.39,1.25,0.39c0.65,0,1.22-0.21,1.71-0.62
				c0.46-0.42,0.71-0.89,0.73-1.42c0.02-0.41,0.03-0.66,0.03-0.76v-2.23c0-1.63-0.06-2.58-0.19-2.87c-0.08-0.17-0.25-0.27-0.52-0.31
				c-0.1-0.02-0.47-0.04-1.1-0.06l-0.14-0.12v-0.7l0.14-0.14c1.58-0.14,3.19-0.49,4.82-1.03l0.26,0.16
				c-0.11,1.25-0.16,2.52-0.16,3.83v3.91c0,1.75,0.05,2.75,0.15,2.98c0.05,0.12,0.13,0.19,0.25,0.22c0.2,0.06,0.63,0.11,1.3,0.15
				l0.14,0.12V217.54z"/>
			<path class="st1" d="M226.91,213.69c0,1.34-0.5,2.42-1.51,3.23c-1.01,0.82-2.33,1.23-3.96,1.23c-1.15,0-2.39-0.25-3.71-0.75
				l-0.14-0.19c0.07-0.76,0.12-1.36,0.14-1.78l0.06-1.57l0.12-0.14h0.74l0.15,0.14c0.03,0.93,0.07,1.48,0.11,1.64
				c0.71,0.91,1.63,1.36,2.78,1.36c0.73,0,1.32-0.18,1.76-0.54c0.44-0.36,0.66-0.84,0.66-1.43c0-0.76-0.33-1.26-1-1.51
				c-0.28-0.11-0.84-0.25-1.68-0.42c-1.37-0.29-2.29-0.62-2.75-1c-0.71-0.57-1.06-1.4-1.06-2.51c0-1.2,0.44-2.17,1.31-2.9
				c0.91-0.76,2.15-1.15,3.71-1.15c1.33,0,2.43,0.22,3.32,0.67l0.11,0.2c-0.09,0.37-0.16,1.33-0.21,2.88l-0.14,0.12H225l-0.14-0.12
				c-0.03-0.6-0.09-1.08-0.17-1.46c-0.52-0.66-1.28-1-2.28-1c-0.65,0-1.18,0.16-1.59,0.47c-0.42,0.32-0.62,0.73-0.62,1.25
				c0,0.69,0.35,1.15,1.06,1.38c0.31,0.1,0.93,0.24,1.84,0.42c1.4,0.27,2.32,0.59,2.77,0.95
				C226.56,211.74,226.91,212.58,226.91,213.69z"/>
		</g>
	</g>
	<g>
		<g>
			<path class="st1" d="M152.49,223.27l0.06,0.06c-0.04,0.39-0.06,1.08-0.06,2.06l-0.05,0.05h-0.31l-0.05-0.06l-0.07-0.6
				c-0.03-0.32-0.06-0.52-0.08-0.6c-0.02-0.07-0.05-0.12-0.1-0.16c-0.04-0.03-0.19-0.06-0.43-0.08c-0.24-0.02-0.51-0.03-0.81-0.03
				h-1.24c-0.03,0.99-0.05,1.56-0.05,1.72v3.83l0.01,1.28c0,0.5,0.02,0.82,0.04,0.96c0.02,0.15,0.05,0.24,0.09,0.29
				c0.04,0.05,0.12,0.09,0.24,0.12c0.12,0.03,0.41,0.06,0.88,0.08l0.05,0.04v0.33l-0.05,0.05c-1.12-0.03-1.75-0.05-1.88-0.05
				c-0.14,0-0.76,0.02-1.87,0.05l-0.05-0.05v-0.33l0.05-0.04c0.41-0.02,0.68-0.04,0.82-0.07c0.13-0.03,0.22-0.06,0.27-0.1
				c0.05-0.04,0.08-0.13,0.12-0.27c0.03-0.14,0.05-0.44,0.05-0.91l0.01-1.39v-3.83c0-0.07-0.02-0.64-0.05-1.72h-0.98
				c-0.4,0-0.75,0.01-1.05,0.03c-0.29,0.02-0.46,0.06-0.51,0.14c-0.05,0.07-0.09,0.31-0.13,0.71l-0.07,0.6l-0.06,0.06h-0.3
				l-0.05-0.05c-0.01-1.06-0.03-1.74-0.06-2.06l0.06-0.06c0.76,0.04,2.03,0.05,3.81,0.05C150.49,223.32,151.76,223.3,152.49,223.27z
				"/>
			<path class="st1" d="M157.66,231.59l-0.21,0.47c-0.46,0.29-0.86,0.48-1.22,0.57c-0.36,0.09-0.68,0.13-0.96,0.13
				c-0.53,0-1.02-0.1-1.5-0.31c-0.47-0.21-0.85-0.55-1.15-1.05c-0.3-0.49-0.44-1.08-0.44-1.77c0-0.46,0.06-0.88,0.17-1.25
				c0.11-0.37,0.23-0.65,0.36-0.83c0.12-0.18,0.34-0.38,0.63-0.6c0.3-0.22,0.61-0.39,0.95-0.53c0.33-0.13,0.69-0.2,1.08-0.2
				c0.53,0,0.99,0.12,1.39,0.37c0.4,0.25,0.68,0.56,0.85,0.95c0.16,0.39,0.24,0.8,0.24,1.23c0,0.14-0.01,0.27-0.02,0.39l-0.07,0.07
				c-0.3,0.07-0.7,0.11-1.2,0.13c-0.5,0.02-0.84,0.03-1,0.03h-2.11c0.01,0.91,0.24,1.58,0.68,2c0.45,0.43,0.99,0.64,1.64,0.64
				c0.31,0,0.6-0.05,0.88-0.16c0.28-0.11,0.58-0.25,0.9-0.44L157.66,231.59z M153.45,228.9c0.08,0.01,0.38,0.03,0.91,0.05
				c0.53,0.02,0.92,0.03,1.17,0.03c0.61,0,0.98-0.01,1.11-0.03c0-0.1,0.01-0.19,0.01-0.24c0-0.68-0.14-1.18-0.41-1.52
				c-0.28-0.33-0.65-0.5-1.13-0.5c-0.52,0-0.93,0.19-1.22,0.56C153.6,227.62,153.45,228.17,153.45,228.9z"/>
			<path class="st1" d="M164.01,231.85l-0.26,0.44c-0.57,0.31-1.2,0.47-1.89,0.47c-0.96,0-1.71-0.29-2.23-0.86
				c-0.53-0.57-0.79-1.31-0.79-2.22c0-0.41,0.04-0.78,0.13-1.1c0.09-0.32,0.2-0.59,0.34-0.8c0.14-0.21,0.29-0.38,0.46-0.5
				c0.17-0.12,0.45-0.29,0.84-0.51c0.4-0.22,0.7-0.36,0.9-0.43c0.2-0.07,0.48-0.1,0.84-0.1c0.68,0,1.24,0.13,1.67,0.39
				c-0.08,0.5-0.15,1.05-0.19,1.66l-0.06,0.05h-0.27l-0.06-0.06c-0.02-0.37-0.04-0.62-0.07-0.74c-0.03-0.13-0.21-0.26-0.52-0.41
				c-0.32-0.14-0.66-0.22-1.02-0.22s-0.68,0.08-0.96,0.23c-0.28,0.15-0.49,0.4-0.63,0.74c-0.14,0.34-0.21,0.76-0.21,1.23
				c0,0.4,0.06,0.8,0.17,1.18c0.11,0.38,0.26,0.7,0.45,0.95c0.19,0.25,0.43,0.45,0.74,0.61c0.31,0.15,0.65,0.23,1.03,0.23
				c0.24,0,0.47-0.03,0.69-0.09c0.23-0.06,0.49-0.16,0.78-0.3L164.01,231.85z"/>
			<path class="st1" d="M166.51,222.82l0.13,0.08c-0.05,0.5-0.07,1.51-0.07,3.03v1.62c0.37-0.3,0.71-0.6,1.03-0.9
				c0.09-0.08,0.18-0.15,0.26-0.18c0.08-0.04,0.22-0.08,0.4-0.12c0.19-0.04,0.38-0.07,0.58-0.07c0.33,0,0.66,0.07,0.97,0.2
				c0.31,0.14,0.55,0.3,0.71,0.48c0.16,0.19,0.27,0.41,0.33,0.66c0.06,0.25,0.09,0.57,0.09,0.94v1.16c0,0.07,0.01,0.62,0.03,1.64
				c0.01,0.42,0.06,0.66,0.14,0.74c0.08,0.08,0.35,0.12,0.81,0.12l0.05,0.05v0.28l-0.05,0.05c-0.56-0.03-0.93-0.05-1.13-0.05
				c-0.1,0-0.42,0.02-0.96,0.05l-0.08-0.07c0.06-0.57,0.09-1.31,0.09-2.23v-0.86c0-0.52-0.01-0.89-0.04-1.12
				c-0.02-0.23-0.1-0.43-0.22-0.62c-0.12-0.19-0.29-0.33-0.49-0.43c-0.2-0.1-0.45-0.15-0.74-0.15c-0.3,0-0.55,0.04-0.75,0.12
				c-0.2,0.08-0.4,0.22-0.61,0.41c-0.21,0.19-0.33,0.35-0.37,0.48c-0.04,0.13-0.06,0.38-0.06,0.75v1.17c0,0.1,0.01,0.41,0.03,0.93
				c0.02,0.52,0.04,0.83,0.06,0.92c0.02,0.09,0.05,0.15,0.09,0.19c0.04,0.04,0.09,0.06,0.14,0.08c0.06,0.01,0.29,0.03,0.71,0.06
				l0.06,0.05v0.28l-0.05,0.06c-0.55-0.03-1.08-0.05-1.58-0.05c-0.5,0-1.03,0.02-1.58,0.05l-0.06-0.06v-0.28l0.06-0.05
				c0.43-0.03,0.67-0.05,0.72-0.06c0.06-0.01,0.1-0.04,0.14-0.08c0.04-0.04,0.07-0.11,0.09-0.19c0.02-0.09,0.03-0.37,0.05-0.85
				c0.02-0.48,0.03-0.84,0.03-1.09v-3.41l-0.03-1.39c-0.01-0.49-0.03-0.82-0.04-1.01c-0.02-0.19-0.04-0.3-0.06-0.34
				c-0.03-0.04-0.07-0.06-0.14-0.08c-0.07-0.02-0.33-0.03-0.8-0.03l-0.06-0.06v-0.28l0.05-0.06
				C165.23,223.21,165.94,223.05,166.51,222.82z"/>
			<path class="st1" d="M174.36,226.29l0.12,0.09c-0.03,0.29-0.04,0.68-0.05,1.16c0.35-0.29,0.68-0.58,1-0.88
				c0.09-0.08,0.18-0.15,0.26-0.18c0.08-0.04,0.22-0.08,0.4-0.12c0.19-0.04,0.38-0.07,0.58-0.07c0.33,0,0.66,0.07,0.97,0.2
				c0.31,0.14,0.55,0.3,0.71,0.48c0.16,0.19,0.27,0.41,0.33,0.66c0.06,0.25,0.09,0.57,0.09,0.94v1.16c0,0.07,0.01,0.62,0.03,1.64
				c0.01,0.42,0.05,0.66,0.14,0.74c0.08,0.08,0.36,0.12,0.82,0.12l0.05,0.05v0.28l-0.05,0.05c-0.56-0.03-0.93-0.05-1.13-0.05
				c-0.11,0-0.43,0.02-0.96,0.05l-0.08-0.07c0.06-0.57,0.09-1.31,0.09-2.23v-0.86c0-0.52-0.01-0.89-0.04-1.12s-0.1-0.43-0.22-0.62
				c-0.12-0.19-0.29-0.33-0.49-0.43c-0.21-0.1-0.45-0.15-0.74-0.15c-0.23,0-0.42,0.02-0.58,0.07c-0.16,0.05-0.34,0.14-0.55,0.28
				c-0.2,0.14-0.35,0.28-0.45,0.4c-0.1,0.12-0.15,0.24-0.17,0.35c-0.02,0.11-0.03,0.34-0.03,0.69v1.14c0,0.1,0.01,0.41,0.03,0.93
				c0.02,0.52,0.04,0.83,0.06,0.92c0.02,0.09,0.05,0.15,0.09,0.19c0.04,0.04,0.09,0.06,0.14,0.08c0.06,0.01,0.29,0.03,0.71,0.06
				l0.06,0.05v0.28l-0.05,0.06c-0.55-0.03-1.08-0.05-1.58-0.05c-0.5,0-1.03,0.02-1.58,0.05l-0.06-0.06v-0.28l0.06-0.05
				c0.43-0.03,0.66-0.05,0.72-0.06c0.05-0.01,0.1-0.04,0.14-0.08c0.04-0.04,0.07-0.11,0.09-0.19c0.02-0.09,0.03-0.37,0.05-0.85
				c0.02-0.48,0.03-0.84,0.03-1.09v-1.29c0-0.18-0.01-0.41-0.03-0.72c-0.02-0.3-0.03-0.49-0.04-0.56c-0.01-0.07-0.04-0.12-0.1-0.15
				c-0.06-0.03-0.17-0.05-0.34-0.05l-0.55-0.01l-0.06-0.05v-0.28l0.05-0.05C173.08,226.69,173.79,226.52,174.36,226.29z"/>
			<path class="st1" d="M180.4,229.55c0-0.52,0.11-1.02,0.32-1.51c0.21-0.48,0.59-0.9,1.12-1.26c0.53-0.35,1.16-0.53,1.9-0.53
				c0.92,0,1.67,0.29,2.25,0.87c0.58,0.58,0.87,1.33,0.87,2.24c0,1-0.33,1.83-1,2.48c-0.66,0.65-1.46,0.97-2.4,0.97
				c-0.61,0-1.16-0.17-1.64-0.5c-0.48-0.33-0.84-0.73-1.07-1.21C180.51,230.63,180.4,230.11,180.4,229.55z M181.64,229.09
				c0,0.61,0.08,1.16,0.24,1.65c0.16,0.48,0.41,0.87,0.75,1.17c0.34,0.29,0.73,0.44,1.17,0.44c0.52,0,0.94-0.21,1.28-0.61
				c0.34-0.41,0.51-1.03,0.51-1.85c0-0.93-0.18-1.7-0.55-2.29c-0.37-0.6-0.89-0.89-1.58-0.89c-0.57,0-1.01,0.21-1.33,0.62
				C181.8,227.72,181.64,228.32,181.64,229.09z"/>
			<path class="st1" d="M189.76,222.82l0.12,0.08c-0.05,0.5-0.07,1.51-0.07,3.03v4.12c0,0.1,0.01,0.41,0.03,0.93
				c0.02,0.52,0.04,0.83,0.06,0.92c0.02,0.09,0.05,0.15,0.09,0.19c0.04,0.04,0.09,0.06,0.15,0.08c0.06,0.01,0.29,0.03,0.71,0.06
				l0.06,0.05v0.28l-0.05,0.06c-0.55-0.03-1.08-0.05-1.58-0.05c-0.5,0-1.03,0.02-1.58,0.05l-0.06-0.06v-0.28l0.06-0.05
				c0.43-0.03,0.66-0.05,0.72-0.06c0.06-0.01,0.1-0.04,0.15-0.08c0.04-0.04,0.07-0.11,0.09-0.19c0.02-0.09,0.03-0.37,0.05-0.85
				c0.02-0.48,0.03-0.84,0.03-1.09v-3.41l-0.03-1.39c-0.01-0.49-0.03-0.82-0.04-1.01c-0.02-0.19-0.04-0.3-0.06-0.34
				c-0.03-0.04-0.07-0.06-0.14-0.08c-0.07-0.02-0.33-0.03-0.79-0.03l-0.06-0.06v-0.28l0.05-0.06
				C188.48,223.21,189.18,223.05,189.76,222.82z"/>
			<path class="st1" d="M191.66,229.55c0-0.52,0.11-1.02,0.32-1.51c0.21-0.48,0.59-0.9,1.12-1.26c0.53-0.35,1.16-0.53,1.9-0.53
				c0.92,0,1.67,0.29,2.25,0.87c0.58,0.58,0.87,1.33,0.87,2.24c0,1-0.33,1.83-1,2.48c-0.66,0.65-1.46,0.97-2.4,0.97
				c-0.61,0-1.16-0.17-1.64-0.5c-0.48-0.33-0.84-0.73-1.07-1.21C191.78,230.63,191.66,230.11,191.66,229.55z M192.91,229.09
				c0,0.61,0.08,1.16,0.24,1.65c0.16,0.48,0.41,0.87,0.75,1.17c0.34,0.29,0.73,0.44,1.17,0.44c0.52,0,0.95-0.21,1.28-0.61
				c0.34-0.41,0.51-1.03,0.51-1.85c0-0.93-0.18-1.7-0.55-2.29c-0.37-0.6-0.89-0.89-1.58-0.89c-0.57,0-1.01,0.21-1.33,0.62
				C193.07,227.72,192.91,228.32,192.91,229.09z"/>
			<path class="st1" d="M205.82,226.75l0.05,0.12c-0.18,0.28-0.29,0.46-0.33,0.54h-1.22c0.12,0.24,0.18,0.49,0.18,0.76
				c0,0.31-0.07,0.61-0.21,0.91c-0.14,0.29-0.34,0.54-0.59,0.75c-0.25,0.21-0.54,0.37-0.86,0.49c-0.32,0.12-0.69,0.18-1.1,0.18h-0.3
				c-0.26,0.21-0.43,0.36-0.5,0.46c-0.07,0.1-0.11,0.2-0.11,0.31c0,0.19,0.09,0.33,0.27,0.41c0.18,0.08,0.54,0.12,1.1,0.12
				l1.47-0.02c0.46,0,0.82,0.05,1.07,0.16c0.25,0.11,0.45,0.31,0.6,0.59c0.15,0.28,0.23,0.58,0.23,0.9c0,0.48-0.16,0.96-0.47,1.44
				c-0.31,0.48-0.77,0.85-1.36,1.09c-0.59,0.25-1.22,0.38-1.89,0.38c-0.38,0-0.74-0.04-1.07-0.13c-0.34-0.08-0.63-0.21-0.88-0.38
				c-0.25-0.17-0.45-0.39-0.61-0.66c-0.15-0.27-0.23-0.55-0.23-0.85c0-0.16,0.02-0.33,0.07-0.51c0.05-0.18,0.14-0.37,0.28-0.58
				l1.19-0.66c-0.38-0.12-0.62-0.24-0.72-0.35c-0.1-0.12-0.15-0.26-0.15-0.42c0-0.17,0.06-0.36,0.16-0.59l1.06-0.76
				c-0.62-0.16-1.04-0.41-1.26-0.73c-0.22-0.32-0.33-0.68-0.33-1.06c0-0.35,0.08-0.69,0.23-1.02c0.15-0.32,0.38-0.58,0.69-0.77
				c0.31-0.19,0.66-0.35,1.04-0.46c0.38-0.11,0.73-0.17,1.05-0.17c0.55,0,1.07,0.18,1.57,0.53
				C204.71,226.77,205.34,226.76,205.82,226.75z M202.4,232.68c-0.71,0-1.11,0.01-1.22,0.03c-0.11,0.02-0.26,0.09-0.46,0.22
				c-0.2,0.13-0.36,0.31-0.48,0.54c-0.12,0.23-0.19,0.48-0.19,0.76c0,0.5,0.18,0.9,0.55,1.21c0.37,0.31,0.86,0.47,1.47,0.47
				c0.46,0,0.89-0.1,1.28-0.29c0.39-0.19,0.68-0.45,0.86-0.78c0.19-0.32,0.28-0.64,0.28-0.93c0-0.3-0.08-0.55-0.23-0.77
				c-0.16-0.21-0.36-0.34-0.61-0.39C203.41,232.71,202.99,232.68,202.4,232.68z M200.47,228.27c0,0.27,0.05,0.55,0.16,0.86
				c0.1,0.31,0.27,0.54,0.51,0.7c0.23,0.16,0.5,0.24,0.79,0.24c0.39,0,0.73-0.13,1.01-0.38c0.28-0.25,0.42-0.65,0.42-1.19
				c0-0.46-0.13-0.87-0.39-1.23c-0.26-0.36-0.63-0.55-1.1-0.55c-0.4,0-0.73,0.13-1,0.39C200.61,227.37,200.47,227.76,200.47,228.27z
				"/>
			<path class="st1" d="M206.35,236.13c0.15-0.37,0.26-0.71,0.34-1.01h0.16c0.21,0.23,0.45,0.35,0.7,0.35
				c0.31,0,0.58-0.15,0.81-0.46c0.23-0.31,0.56-0.99,0.98-2.05c-0.17-0.47-0.34-0.91-0.51-1.33l-1.04-2.59
				c-0.11-0.27-0.27-0.65-0.49-1.15c-0.21-0.5-0.34-0.77-0.38-0.82c-0.04-0.05-0.1-0.1-0.16-0.14c-0.07-0.04-0.24-0.09-0.53-0.12
				l-0.05-0.05v-0.26l0.06-0.05c0.5,0.03,1.02,0.05,1.55,0.05c0.62,0,1.1-0.02,1.44-0.05l0.05,0.05v0.26l-0.05,0.05
				c-0.05,0-0.18,0.01-0.4,0.03c-0.22,0.02-0.36,0.05-0.41,0.1c-0.06,0.05-0.08,0.12-0.08,0.19c0,0.07,0.07,0.32,0.2,0.73
				c0.14,0.41,0.27,0.77,0.4,1.09l0.41,1.03c0.27,0.67,0.48,1.17,0.63,1.49l0.35-0.77c0.12-0.28,0.3-0.71,0.53-1.28l0.55-1.39
				c0.14-0.36,0.22-0.58,0.24-0.67c0.02-0.09,0.03-0.15,0.03-0.19c0-0.1-0.03-0.16-0.11-0.2c-0.07-0.03-0.23-0.07-0.47-0.09
				l-0.28-0.04l-0.05-0.05v-0.29l0.05-0.05c0.37,0.03,0.8,0.05,1.31,0.05c0.46,0,0.83-0.02,1.1-0.05l0.05,0.05v0.29l-0.05,0.05
				c-0.16,0-0.29,0.03-0.39,0.07c-0.1,0.04-0.19,0.11-0.28,0.21c-0.09,0.1-0.25,0.38-0.47,0.85c-0.23,0.47-0.46,0.95-0.68,1.45
				l-0.64,1.41l-1.52,3.55c-0.13,0.31-0.29,0.64-0.49,0.99c-0.19,0.35-0.43,0.6-0.72,0.76c-0.28,0.16-0.58,0.23-0.9,0.23
				C206.86,236.34,206.6,236.27,206.35,236.13z"/>
		</g>
	</g>
</g>
<line class="st2" x1="126.99" y1="200.67" x2="126.99" y2="234.97"/>
<line class="st3" x1="126.99" y1="200.61" x2="126.99" y2="234.91"/>
</svg>
