<?xml version="1.0" encoding="utf-8"?>
<!-- Generator: Adobe Illustrator 23.1.1, SVG Export Plug-In . SVG Version: 6.00 Build 0)  -->
<svg xmlns="http://www.w3.org/2000/svg" xmlns:xlink="http://www.w3.org/1999/xlink"  height="100%" width="100%" version="1.1" id="Ebene_1" x="0px" y="0px" style="enable-background:new 0 0 800 900" xml:space="preserve" viewBox="0 0 800 800">
<style type="text/css">
	.st0{fill:#1E181A;}
	.st1{fill:#B5B4B9;}
	.st2{fill:#100C06;}
	.st3{fill:#FFFFFF;}
	.st4{fill:url(#SVGID_1_);}
	.st5{fill:#514F50;}
	.st6{fill:url(#SVGID_2_);}
	.st7{fill:#F7F7F8;}
	.st8{fill:url(#SVGID_3_);}
	.st9{fill:#9C9EA3;}
	.st10{fill:url(#SVGID_4_);}
	.st11{fill:url(#SVGID_5_);}
	.st12{fill:#110C05;}
	.st13{fill:#514F51;}
	.st14{fill:url(#SVGID_6_);}
	.st15{fill:#DADADA;}
	.st16{fill:#383636;}
</style>
<g>
	
		<linearGradient id="SVGID_5_" gradientUnits="userSpaceOnUse" x1="746.6708" y1="591.1388" x2="746.6708" y2="586.5364" gradientTransform="matrix(-1 0 0 -1 1450.1469 1212.5728)">
		<stop  offset="0" style="stop-color:#000000"/>
		<stop  offset="0.0196" style="stop-color:#121313"/>
		<stop  offset="0.0796" style="stop-color:#44464A"/>
		<stop  offset="0.1313" style="stop-color:#696C72"/>
		<stop  offset="0.1723" style="stop-color:#80838A"/>
		<stop  offset="0.1975" style="stop-color:#888C93"/>
		<stop  offset="0.2938" style="stop-color:#A1A2A8"/>
		<stop  offset="0.4415" style="stop-color:#C3C2C6"/>
		<stop  offset="0.5883" style="stop-color:#DDDCDF"/>
		<stop  offset="0.7318" style="stop-color:#F0EFF1"/>
		<stop  offset="0.8708" style="stop-color:#FBFBFC"/>
		<stop  offset="1" style="stop-color:#FFFFFF"/>
	</linearGradient>
	<path class="st11" d="M734.77,621.43h-62.58c-7.51,0-13.65,2.07-13.65,4.6h89.87C748.41,623.51,742.27,621.43,734.77,621.43z"/>
	<g>
		<g>
			<path class="st12" d="M752.97,606.41c0,8.26-6.71,15.03-14.92,15.03h-68.41c-8.2,0-14.92-6.76-14.92-15.03V429.09
				c0-8.26,6.71-15.03,14.92-15.03h68.41c8.2,0,14.92,6.76,14.92,15.03V606.41z"/>
			<rect x="661.44" y="443.36" class="st3" width="85.64" height="149.46"/>
			<path class="st13" d="M712.7,432.39c0,0.64-0.69,1.17-1.54,1.17h-14.25c-0.84,0-1.54-0.53-1.54-1.17l0,0
				c0-0.64,0.69-1.17,1.54-1.17h14.25C712.01,431.22,712.7,431.75,712.7,432.39L712.7,432.39z"/>
			<path class="st13" d="M705.99,425.37c0,1.04-0.83,1.88-1.86,1.88c-1.03,0-1.86-0.84-1.86-1.88c0-1.04,0.83-1.88,1.86-1.88
				C705.16,423.49,705.99,424.33,705.99,425.37z"/>
			<path class="st12" d="M702.27,425.37c0,0.2,0.04,0.38,0.09,0.56c0.3,0.43,0.79,0.72,1.35,0.72c0.91,0,1.65-0.74,1.65-1.66
				c0-0.63-0.35-1.17-0.86-1.45c-0.12-0.02-0.24-0.04-0.37-0.04C703.1,423.49,702.27,424.33,702.27,425.37z"/>
			<linearGradient id="SVGID_6_" gradientUnits="userSpaceOnUse" x1="791.3481" y1="540.0544" x2="690.1943" y2="438.9005">
				<stop  offset="0" style="stop-color:#000000"/>
				<stop  offset="0.4283" style="stop-color:#020202"/>
				<stop  offset="0.5826" style="stop-color:#090909"/>
				<stop  offset="0.6926" style="stop-color:#141414"/>
				<stop  offset="0.7815" style="stop-color:#252525"/>
				<stop  offset="0.8576" style="stop-color:#3B3B3B"/>
				<stop  offset="0.925" style="stop-color:#575757"/>
				<stop  offset="0.9845" style="stop-color:#767676"/>
				<stop  offset="1" style="stop-color:#808080"/>
			</linearGradient>
			<path class="st14" d="M738.51,414.75h-24.16l6.54,28.21h26.86V560.6l4.52,18.55v-5.86v-144.2
				C752.26,420.91,746.35,414.75,738.51,414.75z"/>
			<rect x="661.44" y="443.36" class="st15" width="85.64" height="4.91"/>
			<rect x="666.59" y="444.53" width="0.56" height="2.28"/>
			<rect x="665.47" y="444.9" width="0.56" height="1.91"/>
			<rect x="664.35" y="445.55" width="0.56" height="1.26"/>
			<rect x="663.35" y="446.18" width="0.56" height="0.63"/>
			<path d="M700.63,444.85L700.63,444.85l-0.39,0.21l-0.06-0.23l0.48-0.26h0.25v2.2h-0.29V444.85z"/>
			<path d="M701.72,446.77v-0.18l0.23-0.23c0.56-0.53,0.81-0.82,0.81-1.15c0-0.22-0.11-0.43-0.43-0.43c-0.2,0-0.36,0.1-0.46,0.19
				l-0.09-0.21c0.15-0.13,0.37-0.22,0.62-0.22c0.47,0,0.67,0.32,0.67,0.64c0,0.41-0.29,0.73-0.75,1.18l-0.17,0.16v0.01h0.98v0.25
				H701.72z"/>
			<path d="M703.47,445.4c0-0.13,0.08-0.21,0.2-0.21c0.12,0,0.2,0.09,0.2,0.21c0,0.12-0.08,0.21-0.2,0.21
				C703.55,445.61,703.47,445.52,703.47,445.4z M703.47,446.6c0-0.12,0.08-0.21,0.2-0.21c0.12,0,0.2,0.09,0.2,0.21
				c0,0.12-0.08,0.21-0.2,0.21C703.55,446.81,703.47,446.72,703.47,446.6z"/>
			<path d="M705.59,445.65c0,0.75-0.28,1.16-0.76,1.16c-0.43,0-0.72-0.4-0.72-1.13c0-0.74,0.32-1.14,0.76-1.14
				C705.33,444.53,705.59,444.95,705.59,445.65z M704.4,445.68c0,0.57,0.17,0.9,0.44,0.9c0.3,0,0.45-0.36,0.45-0.92
				c0-0.54-0.14-0.9-0.44-0.9C704.59,444.76,704.4,445.08,704.4,445.68z"/>
			<path d="M707.32,445.65c0,0.75-0.28,1.16-0.76,1.16c-0.43,0-0.72-0.4-0.72-1.13c0-0.74,0.32-1.14,0.76-1.14
				C707.05,444.53,707.32,444.95,707.32,445.65z M706.13,445.68c0,0.57,0.17,0.9,0.44,0.9c0.3,0,0.45-0.36,0.45-0.92
				c0-0.54-0.14-0.9-0.44-0.9C706.32,444.76,706.13,445.08,706.13,445.68z"/>
			<rect x="739.11" y="444.53" width="3.21" height="2.28"/>
			<g>
				<rect x="743.56" y="444.53" width="0.83" height="2.28"/>
				<rect x="743.97" y="445.24" width="0.83" height="0.87"/>
			</g>
			<rect x="742.54" y="444.53" width="0.83" height="2.28"/>
			<path class="st16" d="M711.14,432.19c0,0.54-0.59,0.97-1.31,0.97H697.7c-0.72,0-1.31-0.44-1.31-0.97l0,0
				c0-0.54,0.59-0.97,1.31-0.97h12.13C710.55,431.22,711.14,431.66,711.14,432.19L711.14,432.19z"/>
		</g>
		<g>
			<g>
				<g>
					<rect x="703.48" y="605.34" class="st16" width="0.81" height="0.46"/>
					<rect x="703.48" y="602.27" class="st13" width="0.81" height="3.23"/>
				</g>
				<path class="st16" d="M705.6,603.47v0.42c1.02,0.6,1.71,1.71,1.71,2.99c0,1.91-1.54,3.46-3.43,3.46c-1.89,0-3.43-1.55-3.43-3.46
					c0-1.27,0.69-2.39,1.71-2.99v-0.42c-1.23,0.63-2.07,1.92-2.07,3.4c0,2.11,1.7,3.82,3.8,3.82c2.09,0,3.8-1.72,3.8-3.82
					C707.67,605.39,706.83,604.11,705.6,603.47z"/>
				<path class="st13" d="M705.6,603.23v0.43c1.13,0.62,1.91,1.83,1.91,3.22c0,2.02-1.63,3.66-3.63,3.66c-2,0-3.63-1.64-3.63-3.66
					c0-1.39,0.77-2.6,1.91-3.22v-0.43c-1.35,0.65-2.29,2.04-2.29,3.64c0,2.23,1.8,4.04,4.01,4.04c2.21,0,4.01-1.81,4.01-4.04
					C707.89,605.27,706.96,603.88,705.6,603.23z"/>
			</g>
			<g>
				<polygon class="st16" points="726.2,606.18 726.2,604.48 724.68,605.31 				"/>
				<path class="st13" d="M727.92,605.02h-1.9v0.39h1.9c2.18,0,2.18,3.27,0,3.27h-2.46v0.39h2.46
					C730.61,609.06,730.61,605.02,727.92,605.02z"/>
				<path class="st16" d="M727.92,605.31h-1.9v0.19h1.9c2.05,0,2.05,3.08,0,3.08h-2.46v0.19h2.46
					C730.23,608.77,730.23,605.31,727.92,605.31z"/>
				<polygon class="st13" points="726.2,605.96 726.2,604.48 724.83,605.22 				"/>
			</g>
			<g>
				<g>
					<rect x="677.76" y="604.92" class="st13" width="5.38" height="0.53"/>
					<rect x="677.76" y="605.28" class="st16" width="5.38" height="0.24"/>
				</g>
				<g>
					<rect x="677.76" y="606.61" class="st13" width="5.38" height="0.53"/>
					<rect x="677.76" y="606.98" class="st16" width="5.38" height="0.24"/>
				</g>
				<g>
					<rect x="677.76" y="608.31" class="st13" width="5.38" height="0.53"/>
					<rect x="677.76" y="608.68" class="st16" width="5.38" height="0.24"/>
				</g>
			</g>
		</g>
	</g>
</g>
</svg>
